Patient4_TMGait_0pt6_02_right_38_EMG.mot
version=1
nRows=23
nColumns=33
inDegrees=no
endheader
time	1LAddLong	2LGlutMax	3LGlutMed	4LIliopsoas	5LSemiMemb	6LBicFemLong	7LRecFem	8LVastMed	9LVastLat	10LGasMed	11LTibAnt	12lTibPost	13LPeroneusLong	14LSol	15LExtDigLong	16LFlexDigLong	17RAddLong	18RGlutMax	19RGlutMed	20RIliopsoas	21RSemiMemb	22RBicFemLong	23RRecFem	24RVastMed	25RVastLat	26RGasMed	27RTibAnt	28RTibPost	29RPeroneusLong	30RSol	31RExtDigLong	32RFlexDigLong
45.76	0.011749	-0.19623	-0.000458	0.003357	0.16388	-0.20218	0.14725	0.000153	-0.002747	0.096283	0.034485	-0.005341	-0.18906	-0.16098	-0.085602	0.009308	0.068207	-0.079498	0.37842	0.10056	-0.090332	-0.042419	-0.044556	-0.076141	-0.030823	-0.008545	-0.1767	-0.007019	-0.23239	0.039063	0.001373	-0.034332
45.761	0.02121	-0.21896	0.042419	-0.026093	0.17746	-0.040283	0.11749	-0.005493	-0.012054	0.019531	0.10086	-0.001373	0.02243	-0.18051	-0.096588	-0.006561	0.071564	-0.1413	-0.0737	0.11978	-0.10178	-0.052795	0.076904	-0.14206	-0.037842	-0.000153	-0.25101	-0.014343	-0.006561	0.053711	0.001373	-0.030518
45.762	0.022583	-0.22934	0.000916	-0.019836	0.1416	0.098724	0.13519	-0.008392	-0.00412	0.063934	0.1001	-0.000153	0.061035	-0.2211	-0.027313	0.001068	0.1294	-0.1915	-0.032654	-0.022888	-0.1152	-0.046387	0.11063	-0.20157	-0.030365	0.005951	0.029297	-0.007782	-0.29434	0.019989	0.00351	-0.022888
45.763	0.017853	-0.23331	-0.007629	-0.023193	0.085144	0.23117	0.096893	-0.001068	0.05722	0.070038	0.042572	-0.021667	0.16373	-0.17425	0.035248	0.008545	0.12161	-0.17136	0.31769	-0.044403	-0.1297	-0.054169	0.1297	-0.15228	-0.018768	-0.001678	0.11673	-0.009613	0.15259	0.03418	0.005341	-0.02182
45.764	0.011902	-0.26016	-0.02594	0.026093	0.057983	0.17197	0.032043	0.015106	0.076599	0.06546	0.037537	-0.019073	0.10712	-0.04425	0.09201	0.025177	0.069275	-0.19043	0.24017	0.052795	-0.13001	-0.058594	0.20798	-0.15823	-0.018158	-0.008087	0.036011	-0.013275	0.27176	-0.037537	0.006714	-0.016785
45.765	0.016479	-0.19226	-0.088654	0.024872	0.032501	0.082245	0.065002	0.009155	0.1004	0.044861	0.036774	-0.017242	-0.66391	0.011292	0.10941	0.014801	0.014801	-0.14771	0.50873	0.103	-0.1178	-0.006104	0.22064	-0.11093	0.004425	-0.00824	0.21729	-0.012817	-0.086365	-0.045471	-0.008087	-0.016327
45.766	0.002441	-0.18478	-0.083466	0.012512	-0.028076	0.12009	0.096893	0.031738	0.15243	0.035706	0.011292	-0.01709	-0.80795	-0.24124	0.020142	0.013428	-0.024719	-0.19684	0.06134	0.13947	-0.097809	0.006714	0.20828	-0.053864	0.005798	-0.002594	0.010986	-0.007477	-0.25879	-0.066681	-0.001831	-0.019226
45.767	0.007782	-0.26245	-0.19089	0.03418	-0.10407	0.11871	0.03891	0.037842	0.17441	0.053101	-0.012665	-0.012665	-0.37231	-0.38467	-0.056915	0.009613	-0.059662	-0.23666	0.22415	0.21545	-0.084076	0.025635	0.17319	0.005493	0.001068	-0.000305	-0.17883	-0.006866	0.074463	-0.098114	0.005035	-0.012512
45.768	0.012817	-0.27557	-0.03479	0.037384	-0.11322	0.041351	0.041351	0.039215	0.20981	0.010834	-0.017395	-0.013428	-0.18692	-0.40054	-0.038452	-0.00885	-0.056915	-0.25192	-0.13138	0.12543	-0.061951	0.039063	0.12161	-0.006866	0.007324	-0.008698	0.02533	-0.004578	0.112	-0.016937	0.006561	-0.000305
45.769	0.014648	-0.22903	0.19943	0.03418	0.00885	-0.033417	0.10864	0.017548	0.10284	-0.032959	-0.000458	-0.013733	-0.47653	-0.47928	-0.029297	-0.009308	-0.044708	-0.18875	-0.16251	-0.003815	-0.073547	0.031586	0.14435	-0.043182	0.021362	-0.00946	0.47363	-0.002136	-0.047302	0.005798	-0.001831	-0.013123
45.77	0.018005	-0.22064	0.1001	0.013275	0.03952	0.005341	0.12085	-0.020294	-0.12711	0.000458	0.009155	-0.021515	0.22888	-0.39963	0.009613	-0.016785	-0.033569	-0.21286	-0.09201	-0.083923	-0.073395	0.054169	0.1152	-0.084991	0.011597	-0.00351	0.60379	-0.010223	-0.15182	-0.004272	0.000153	-0.009155
45.771	0.029907	-0.17563	0.16296	-0.025024	0.095673	0.17807	0.072937	-0.020599	-0.22247	0.001526	0.005646	0.013885	0.50659	-0.12253	0.10635	-0.005341	-0.005188	-0.17746	0.007629	-0.08316	-0.07309	0.047913	0.12131	-0.089264	0.020142	-0.000458	0.001373	-0.001373	-0.1207	-0.048065	0.005798	-0.006256
45.772	0.013885	-0.2092	0.079346	-0.011444	0.079346	0.33646	0.072632	-0.019073	-0.058441	-0.042419	0.018463	0.014038	0.53574	0.11719	0.079193	-0.009918	0.035248	-0.18585	-0.15945	-0.14648	-0.089417	0.032959	0.19913	-0.12634	0.033264	0.005798	-0.62866	-0.001984	-0.16663	-0.063019	0.003967	-0.001831
45.773	0.008545	-0.22705	0.024109	0.008698	0.055695	0.4393	0.016174	-0.006714	-0.13962	-0.14297	0.025024	-0.001373	0.17334	-0.08606	-0.011597	-0.00473	0.067902	-0.1857	-0.20142	-0.24841	-0.09079	0.05127	0.24567	-0.12238	0.028076	0.007172	-0.46097	-0.001831	-0.14725	-0.099945	0.001678	0
45.774	0.012512	-0.16846	0.008545	0.019531	0.040283	0.55389	-0.099335	0.002441	-0.041809	-0.081482	-0.024872	-0.000458	0.1059	-0.11322	-0.011139	0.007172	0.074921	-0.15671	-0.042725	-0.17288	-0.084534	0.057678	0.23041	-0.1294	0.014648	0.00946	-0.29495	-0.001831	-0.012512	-0.10483	0.008545	-0.006866
45.775	0.005188	-0.14313	0.074158	0.01236	0.009918	0.66147	-0.055389	0.002441	0.052643	0.059052	-0.029449	0.034027	0.33356	0.13534	0.066681	0.009766	0.04715	-0.19821	0.015259	0.013123	-0.071564	0.066071	0.28275	-0.10864	0.031586	0.006104	-0.10346	-0.008087	0.026855	-0.10681	-0.00061	-0.007935
45.776	0.001221	-0.15945	0.028076	-0.006104	0.000916	0.61066	-0.002899	-0.006104	0.071411	0.064392	-0.009766	0.032043	0.47882	0.29068	0.081482	0.013275	0.088196	-0.27252	0.028687	0.22842	-0.075989	0.016785	0.22324	-0.080719	0.017548	0.010986	-0.23148	-0.007019	0.085754	-0.11505	0	-0.006714
45.777	-0.005798	-0.16892	-0.014954	-0.014191	0.005493	0.66742	0.038452	-0.019379	0.06958	0.10468	0.023041	0.007629	-0.18417	0.24963	0.016022	0.007629	0.096893	-0.27206	0.070953	0.37033	-0.097046	-0.014648	0.22888	-0.103	0.003357	0.015411	-0.44723	-0.009766	0.056763	-0.13168	0.005798	-0.007782
45.778	-0.009918	-0.12039	0.039825	-0.014038	-0.011292	0.82871	0.051575	-0.006561	-0.012665	0.18005	0.054321	0.016327	-0.17822	0.032654	-0.11307	0.00351	0.11353	-0.21668	0.036621	0.19272	-0.11566	-0.038605	0.19943	-0.10208	-0.012207	0.011749	-0.34073	-0.002136	-0.09491	-0.13565	-0.002441	-0.002136
45.779	-0.018463	-0.11154	-0.045166	0.021362	-0.053406	0.62103	0.065613	0.009918	-0.025024	0.15945	0.022583	0.010681	0.040436	0.099182	-0.15442	0.023499	0.11063	-0.1886	-0.024567	-0.041962	-0.10208	-0.059052	0.12238	-0.12558	-0.00351	0.011139	-0.45959	-0.002136	-0.038757	-0.15961	0.000458	-0.003357
45.78	-0.014038	-0.092163	-0.019073	0.023499	-0.098572	-0.004883	0.045624	-0.001678	0.024261	0.10407	-0.001831	0.011444	0.025482	0.047913	-0.094604	-0.00351	0.026398	-0.18494	0.19196	-0.12466	-0.11139	-0.062561	0.042877	-0.12589	0.019531	0.007477	-0.34698	0.000763	-0.025787	-0.092621	-0.004578	-0.000153
45.781	0.010376	-0.070801	0.075531	0.014954	-0.098877	-0.91003	0.019989	-0.010529	0.066223	0.056458	0.034027	0.012207	-0.19775	-0.06958	-0.070953	-0.010681	-0.030212	-0.19852	0.32822	-0.12482	-0.10483	-0.052643	-0.007935	-0.15533	0.014496	-0.018921	-0.33768	-0.006561	0.03479	0.00946	-0.003967	-0.000305
45.782	0.015106	-0.11841	0.09491	0.008545	-0.078888	-1.3272	0.022125	-0.010071	0.078888	0.080261	0.044403	0.012665	-0.1561	-0.14236	0.031738	-0.006256	-0.099487	-0.21942	0.26932	-0.057678	-0.10025	-0.033417	-0.090027	-0.1326	0.033112	-0.017395	-0.47287	-0.003357	0.11856	0.069733	-0.000763	-0.007172
